<svg width="120" height="120" viewBox="0 0 120 120" fill="none" xmlns="http://www.w3.org/2000/svg">
<circle cx="60" cy="60" r="60" fill="#5C2020"/>
<path d="M42.576 35.0099L83.28 57.9089C83.6508 58.1178 83.9594 58.4216 84.1741 58.789C84.3888 59.1564 84.502 59.5744 84.502 59.9999C84.502 60.4255 84.3888 60.8435 84.1741 61.2109C83.9594 61.5783 83.6508 61.8821 83.28 62.0909L42.576 84.9899C42.2107 85.1953 41.7979 85.3014 41.3788 85.2977C40.9597 85.294 40.5489 85.1806 40.1873 84.9689C39.8256 84.7571 39.5257 84.4543 39.3174 84.0906C39.1091 83.7269 38.9997 83.315 39 82.8959V37.1039C39.0002 36.6851 39.11 36.2736 39.3185 35.9103C39.527 35.5471 39.827 35.2447 40.1885 35.0333C40.5501 34.8218 40.9607 34.7087 41.3796 34.7052C41.7984 34.7016 42.2109 34.8047 42.576 35.0099Z" fill="white"/>
</svg>
