<svg width="80" height="80" viewBox="0 0 80 80" fill="none" xmlns="http://www.w3.org/2000/svg">
<g clip-path="url(#clip0_1590_2429)">
<path d="M46.668 16.668C47.5308 16.6679 48.3601 17.0025 48.9813 17.6013L49.2713 17.918L61.6013 33.3346H63.3346C65.8853 33.3345 68.3397 34.3091 70.1955 36.0589C72.0513 37.8088 73.1683 40.2017 73.318 42.748L73.3346 43.3346V56.668C73.3346 57.552 72.9834 58.3999 72.3583 59.025C71.7332 59.6501 70.8854 60.0013 70.0013 60.0013H66.098C65.4079 61.9508 64.1306 63.6385 62.4419 64.8321C60.7531 66.0258 58.736 66.6667 56.668 66.6667C54.6 66.6667 52.5828 66.0258 50.8941 64.8321C49.2053 63.6385 47.928 61.9508 47.238 60.0013H32.7646C32.0746 61.9508 30.7973 63.6385 29.1086 64.8321C27.4198 66.0258 25.4026 66.6667 23.3346 66.6667C21.2666 66.6667 19.2495 66.0258 17.5607 64.8321C15.872 63.6385 14.5947 61.9508 13.9046 60.0013H10.0013C9.11725 60.0013 8.2694 59.6501 7.64428 59.025C7.01916 58.3999 6.66797 57.552 6.66797 56.668V36.668L6.6913 36.278L6.71797 36.0913L6.77464 35.8313L6.81464 35.7113L6.8613 35.5446L13.5746 18.7646C13.8217 18.1461 14.2485 17.6158 14.7999 17.2421C15.3512 16.8684 16.0019 16.6684 16.668 16.668H46.668ZM23.3346 53.3346C22.4506 53.3346 21.6027 53.6858 20.9776 54.3109C20.3525 54.9361 20.0013 55.7839 20.0013 56.668C20.0013 57.552 20.3525 58.3999 20.9776 59.025C21.6027 59.6501 22.4506 60.0013 23.3346 60.0013C24.2187 60.0013 25.0665 59.6501 25.6917 59.025C26.3168 58.3999 26.668 57.552 26.668 56.668C26.668 55.7839 26.3168 54.9361 25.6917 54.3109C25.0665 53.6858 24.2187 53.3346 23.3346 53.3346ZM56.668 53.3346C55.7839 53.3346 54.9361 53.6858 54.3109 54.3109C53.6858 54.9361 53.3346 55.7839 53.3346 56.668C53.3346 57.552 53.6858 58.3999 54.3109 59.025C54.9361 59.6501 55.7839 60.0013 56.668 60.0013C57.552 60.0013 58.3999 59.6501 59.025 59.025C59.6501 58.3999 60.0013 57.552 60.0013 56.668C60.0013 55.7839 59.6501 54.9361 59.025 54.3109C58.3999 53.6858 57.552 53.3346 56.668 53.3346ZM36.668 23.3346H18.9213L14.9213 33.3346H36.668V23.3346ZM45.068 23.3346H43.3346V33.3346H53.068L45.068 23.3346Z" fill="white"/>
</g>
<defs>
<clipPath id="clip0_1590_2429">
<rect width="80" height="80" fill="white"/>
</clipPath>
</defs>
</svg>
